<svg width="40" height="40" viewBox="0 0 40 40" fill="none" xmlns="http://www.w3.org/2000/svg">
<path d="M16.25 6.875H8.75C8.25272 6.875 7.77581 7.07254 7.42417 7.42417C7.07254 7.77581 6.875 8.25272 6.875 8.75V16.25C6.875 16.7473 7.07254 17.2242 7.42417 17.5758C7.77581 17.9275 8.25272 18.125 8.75 18.125H16.25C16.7473 18.125 17.2242 17.9275 17.5758 17.5758C17.9275 17.2242 18.125 16.7473 18.125 16.25V8.75C18.125 8.25272 17.9275 7.77581 17.5758 7.42417C17.2242 7.07254 16.7473 6.875 16.25 6.875ZM16.875 16.25C16.875 16.4158 16.8092 16.5747 16.6919 16.6919C16.5747 16.8092 16.4158 16.875 16.25 16.875H8.75C8.58424 16.875 8.42527 16.8092 8.30806 16.6919C8.19085 16.5747 8.125 16.4158 8.125 16.25V8.75C8.125 8.58424 8.19085 8.42527 8.30806 8.30806C8.42527 8.19085 8.58424 8.125 8.75 8.125H16.25C16.4158 8.125 16.5747 8.19085 16.6919 8.30806C16.8092 8.42527 16.875 8.58424 16.875 8.75V16.25ZM31.25 6.875H23.75C23.2527 6.875 22.7758 7.07254 22.4242 7.42417C22.0725 7.77581 21.875 8.25272 21.875 8.75V16.25C21.875 16.7473 22.0725 17.2242 22.4242 17.5758C22.7758 17.9275 23.2527 18.125 23.75 18.125H31.25C31.7473 18.125 32.2242 17.9275 32.5758 17.5758C32.9275 17.2242 33.125 16.7473 33.125 16.25V8.75C33.125 8.25272 32.9275 7.77581 32.5758 7.42417C32.2242 7.07254 31.7473 6.875 31.25 6.875ZM31.875 16.25C31.875 16.4158 31.8092 16.5747 31.6919 16.6919C31.5747 16.8092 31.4158 16.875 31.25 16.875H23.75C23.5842 16.875 23.4253 16.8092 23.3081 16.6919C23.1908 16.5747 23.125 16.4158 23.125 16.25V8.75C23.125 8.58424 23.1908 8.42527 23.3081 8.30806C23.4253 8.19085 23.5842 8.125 23.75 8.125H31.25C31.4158 8.125 31.5747 8.19085 31.6919 8.30806C31.8092 8.42527 31.875 8.58424 31.875 8.75V16.25ZM16.25 21.875H8.75C8.25272 21.875 7.77581 22.0725 7.42417 22.4242C7.07254 22.7758 6.875 23.2527 6.875 23.75V31.25C6.875 31.7473 7.07254 32.2242 7.42417 32.5758C7.77581 32.9275 8.25272 33.125 8.75 33.125H16.25C16.7473 33.125 17.2242 32.9275 17.5758 32.5758C17.9275 32.2242 18.125 31.7473 18.125 31.25V23.75C18.125 23.2527 17.9275 22.7758 17.5758 22.4242C17.2242 22.0725 16.7473 21.875 16.25 21.875ZM16.875 31.25C16.875 31.4158 16.8092 31.5747 16.6919 31.6919C16.5747 31.8092 16.4158 31.875 16.25 31.875H8.75C8.58424 31.875 8.42527 31.8092 8.30806 31.6919C8.19085 31.5747 8.125 31.4158 8.125 31.25V23.75C8.125 23.5842 8.19085 23.4253 8.30806 23.3081C8.42527 23.1908 8.58424 23.125 8.75 23.125H16.25C16.4158 23.125 16.5747 23.1908 16.6919 23.3081C16.8092 23.4253 16.875 23.5842 16.875 23.75V31.25ZM31.25 21.875H23.75C23.2527 21.875 22.7758 22.0725 22.4242 22.4242C22.0725 22.7758 21.875 23.2527 21.875 23.75V31.25C21.875 31.7473 22.0725 32.2242 22.4242 32.5758C22.7758 32.9275 23.2527 33.125 23.75 33.125H31.25C31.7473 33.125 32.2242 32.9275 32.5758 32.5758C32.9275 32.2242 33.125 31.7473 33.125 31.25V23.75C33.125 23.2527 32.9275 22.7758 32.5758 22.4242C32.2242 22.0725 31.7473 21.875 31.25 21.875ZM31.875 31.25C31.875 31.4158 31.8092 31.5747 31.6919 31.6919C31.5747 31.8092 31.4158 31.875 31.25 31.875H23.75C23.5842 31.875 23.4253 31.8092 23.3081 31.6919C23.1908 31.5747 23.125 31.4158 23.125 31.25V23.75C23.125 23.5842 23.1908 23.4253 23.3081 23.3081C23.4253 23.1908 23.5842 23.125 23.75 23.125H31.25C31.4158 23.125 31.5747 23.1908 31.6919 23.3081C31.8092 23.4253 31.875 23.5842 31.875 23.75V31.25Z" fill="white"/>
</svg>
