<svg width="28" height="36" viewBox="0 0 28 36" fill="none" xmlns="http://www.w3.org/2000/svg">
<path d="M21.5002 34.25C21.5002 34.5815 21.3685 34.8994 21.1341 35.1338C20.8997 35.3683 20.5817 35.5 20.2502 35.5H7.7502C7.41868 35.5 7.10074 35.3683 6.86632 35.1338C6.6319 34.8994 6.5002 34.5815 6.5002 34.25C6.5002 33.9184 6.6319 33.6005 6.86632 33.3661C7.10074 33.1317 7.41868 33 7.7502 33H20.2502C20.5817 33 20.8997 33.1317 21.1341 33.3661C21.3685 33.6005 21.5002 33.9184 21.5002 34.25ZM27.7502 14.25C27.7556 16.3338 27.2848 18.3913 26.3739 20.2654C25.4629 22.1396 24.1359 23.7809 22.494 25.064C22.1869 25.2994 21.9378 25.6018 21.7656 25.9481C21.5933 26.2945 21.5026 26.6756 21.5002 27.0625V28C21.5002 28.663 21.2368 29.2989 20.768 29.7677C20.2991 30.2366 19.6632 30.5 19.0002 30.5H9.0002C8.33716 30.5 7.70128 30.2366 7.23244 29.7677C6.7636 29.2989 6.5002 28.663 6.5002 28V27.0625C6.49995 26.6803 6.41207 26.3032 6.24332 25.9603C6.07456 25.6174 5.82943 25.3177 5.52677 25.0843C3.88896 23.8088 2.56278 22.1774 1.64861 20.3136C0.73444 18.4498 0.25624 16.4024 0.250204 14.3265C0.209579 6.87965 6.22833 0.678088 13.669 0.499963C15.5023 0.455782 17.326 0.778796 19.0326 1.44999C20.7393 2.12118 22.2944 3.127 23.6065 4.40823C24.9186 5.68946 25.9612 7.22022 26.6728 8.91041C27.3844 10.6006 27.7507 12.4161 27.7502 14.25ZM22.733 12.7906C22.4089 10.9801 21.5378 9.31241 20.2371 8.01199C18.9365 6.71158 17.2686 5.84089 15.458 5.51715C15.2961 5.48986 15.1304 5.49472 14.9704 5.53147C14.8104 5.56821 14.6592 5.63611 14.5254 5.73129C14.3916 5.82647 14.2779 5.94706 14.1908 6.08619C14.1036 6.22532 14.0447 6.38025 14.0174 6.54215C13.9901 6.70405 13.995 6.86973 14.0317 7.02975C14.0684 7.18976 14.1363 7.34097 14.2315 7.47475C14.3267 7.60852 14.4473 7.72224 14.5864 7.80941C14.7256 7.89657 14.8805 7.95548 15.0424 7.98278C17.6315 8.41871 19.8283 10.6156 20.2674 13.2093C20.3169 13.5005 20.4678 13.7647 20.6934 13.9552C20.9191 14.1456 21.2049 14.2501 21.5002 14.25C21.5709 14.2495 21.6414 14.2438 21.7111 14.2328C22.0379 14.177 22.3291 13.9937 22.5207 13.7233C22.7123 13.4528 22.7887 13.1173 22.733 12.7906Z" fill="white"/>
</svg>
