<svg width="40" height="40" viewBox="0 0 40 40" fill="none" xmlns="http://www.w3.org/2000/svg">
<path d="M34.375 20C34.375 20.1658 34.3092 20.3247 34.1919 20.4419C34.0747 20.5592 33.9158 20.625 33.75 20.625H6.25C6.08424 20.625 5.92527 20.5592 5.80806 20.4419C5.69085 20.3247 5.625 20.1658 5.625 20C5.625 19.8342 5.69085 19.6753 5.80806 19.5581C5.92527 19.4408 6.08424 19.375 6.25 19.375H33.75C33.9158 19.375 34.0747 19.4408 34.1919 19.5581C34.3092 19.6753 34.375 19.8342 34.375 20ZM6.25 10.625H33.75C33.9158 10.625 34.0747 10.5592 34.1919 10.4419C34.3092 10.3247 34.375 10.1658 34.375 10C34.375 9.83424 34.3092 9.67527 34.1919 9.55806C34.0747 9.44085 33.9158 9.375 33.75 9.375H6.25C6.08424 9.375 5.92527 9.44085 5.80806 9.55806C5.69085 9.67527 5.625 9.83424 5.625 10C5.625 10.1658 5.69085 10.3247 5.80806 10.4419C5.92527 10.5592 6.08424 10.625 6.25 10.625ZM33.75 29.375H6.25C6.08424 29.375 5.92527 29.4408 5.80806 29.5581C5.69085 29.6753 5.625 29.8342 5.625 30C5.625 30.1658 5.69085 30.3247 5.80806 30.4419C5.92527 30.5592 6.08424 30.625 6.25 30.625H33.75C33.9158 30.625 34.0747 30.5592 34.1919 30.4419C34.3092 30.3247 34.375 30.1658 34.375 30C34.375 29.8342 34.3092 29.6753 34.1919 29.5581C34.0747 29.4408 33.9158 29.375 33.75 29.375Z" fill="white"/>
</svg>
