<svg width="40" height="40" viewBox="0 0 40 40" fill="none" xmlns="http://www.w3.org/2000/svg">
<path d="M20.0004 13.125C18.6407 13.125 17.3114 13.5282 16.1809 14.2837C15.0503 15.0391 14.1691 16.1128 13.6487 17.3691C13.1284 18.6253 12.9922 20.0076 13.2575 21.3413C13.5228 22.6749 14.1776 23.8999 15.139 24.8614C16.1005 25.8229 17.3255 26.4776 18.6592 26.7429C19.9928 27.0082 21.3751 26.872 22.6314 26.3517C23.8876 25.8313 24.9613 24.9501 25.7168 23.8196C26.4722 22.689 26.8754 21.3598 26.8754 20C26.8733 18.1773 26.1483 16.4298 24.8595 15.1409C23.5706 13.8521 21.8231 13.1271 20.0004 13.125ZM20.0004 25.625C18.8879 25.625 17.8003 25.2951 16.8753 24.677C15.9503 24.0589 15.2293 23.1804 14.8036 22.1526C14.3778 21.1248 14.2664 19.9938 14.4835 18.9026C14.7005 17.8115 15.2363 16.8092 16.0229 16.0225C16.8096 15.2359 17.8119 14.7001 18.903 14.4831C19.9942 14.266 21.1252 14.3774 22.153 14.8032C23.1808 15.2289 24.0593 15.9499 24.6774 16.8749C25.2955 17.8 25.6254 18.8875 25.6254 20C25.6254 21.4918 25.0328 22.9226 23.9779 23.9775C22.923 25.0324 21.4922 25.625 20.0004 25.625ZM36.5629 16.875C36.5445 16.7862 36.5071 16.7025 36.4531 16.6297C36.3991 16.5568 36.33 16.4966 36.2504 16.4531L31.4238 13.7031C31.3749 13.6177 31.3228 13.5333 31.2676 13.45L31.266 8.00001C31.2654 7.91044 31.2452 7.82209 31.2069 7.74113C31.1685 7.66017 31.113 7.58855 31.0442 7.53126C29.4141 6.15134 27.5365 5.09401 25.5113 4.41563C25.4287 4.38753 25.3411 4.37704 25.2542 4.38485C25.1673 4.39265 25.0829 4.41857 25.0067 4.46095L20.1567 7.1672H19.8442L15.0004 4.4547C14.9242 4.41207 14.8399 4.38587 14.753 4.3778C14.6661 4.36973 14.5784 4.37995 14.4957 4.40782C12.4714 5.09025 10.5949 6.15068 8.96603 7.53282C8.89793 7.59067 8.84303 7.66244 8.80503 7.7433C8.76702 7.82416 8.7468 7.91223 8.74571 8.00157L8.72071 13.4547L8.56446 13.7078L3.73478 16.4531C3.65812 16.4983 3.59198 16.5593 3.54078 16.632C3.48959 16.7048 3.45451 16.7876 3.4379 16.875C3.02851 18.9382 3.02851 21.0618 3.4379 23.125C3.4554 23.2131 3.49167 23.2964 3.54425 23.3692C3.59683 23.442 3.66448 23.5026 3.74259 23.5469L8.56915 26.2969C8.61811 26.3833 8.67019 26.4677 8.7254 26.55L8.74415 31.9984C8.74481 32.088 8.765 32.1764 8.80332 32.2573C8.84164 32.3383 8.89717 32.4099 8.96603 32.4672C10.5961 33.8471 12.4737 34.9044 14.4988 35.5828C14.5815 35.6109 14.6691 35.6214 14.756 35.6136C14.8429 35.6058 14.9272 35.5799 15.0035 35.5375L19.8442 32.8328H20.1567L25.0004 35.5453C25.0766 35.5879 25.1609 35.6141 25.2478 35.6222C25.3347 35.6303 25.4224 35.6201 25.5051 35.5922C27.5294 34.9098 29.4059 33.8493 31.0348 32.4672C31.1029 32.4093 31.1578 32.3376 31.1958 32.2567C31.2338 32.1759 31.254 32.0878 31.2551 31.9984L31.2801 26.5453L31.4363 26.2922L36.266 23.5469C36.3458 23.5033 36.415 23.4428 36.469 23.3697C36.523 23.2965 36.5604 23.2125 36.5785 23.1234C36.9826 21.0597 36.9772 18.9367 36.5629 16.875ZM35.3942 22.6047L30.6723 25.2875C30.5733 25.3442 30.4917 25.4268 30.4363 25.5266C30.341 25.6969 30.241 25.8656 30.1379 26.0328C30.0756 26.1309 30.0426 26.2447 30.0426 26.3609L30.0176 31.6969C28.6325 32.8301 27.0627 33.7165 25.377 34.3172L20.627 31.6609C20.5314 31.6079 20.4238 31.5805 20.3145 31.5813H20.3129C20.1129 31.5813 19.9113 31.5813 19.7129 31.5813C19.601 31.5794 19.4906 31.6069 19.3926 31.6609L14.6348 34.3172C12.9461 33.7183 11.3728 32.8342 9.98321 31.7031L9.96446 26.3719C9.96467 26.2552 9.93161 26.1408 9.86915 26.0422C9.76603 25.8859 9.66603 25.7078 9.57071 25.5375C9.51536 25.4378 9.43376 25.3551 9.33478 25.2984L4.60821 22.6063C4.30041 20.8834 4.30041 19.1197 4.60821 17.3969L9.32853 14.7125C9.42751 14.6558 9.50911 14.5732 9.56446 14.4734C9.65978 14.3031 9.75978 14.1344 9.8629 13.9688C9.92481 13.8699 9.95783 13.7557 9.95821 13.6391L9.98321 8.30313C11.3683 7.16988 12.9381 6.2835 14.6238 5.68282L19.3738 8.33907C19.4718 8.39316 19.5823 8.42063 19.6942 8.41876C19.8942 8.41876 20.0957 8.41876 20.2942 8.41876C20.4061 8.42138 20.5168 8.39386 20.6145 8.33907L25.3723 5.68282C27.0587 6.28233 28.6299 7.16648 30.0176 8.29688L30.0363 13.6281C30.0361 13.7449 30.0692 13.8592 30.1317 13.9578C30.2348 14.1141 30.3348 14.2922 30.4301 14.4625C30.4854 14.5622 30.567 14.6449 30.666 14.7016L35.3926 17.3938C35.7019 19.1163 35.7035 20.88 35.3973 22.6031L35.3942 22.6047Z" fill="white"/>
</svg>
